<?xml version="1.0" encoding="UTF-8" standalone="no"?>
<!DOCTYPE svg PUBLIC "-//W3C//DTD SVG 1.1//EN" "http://www.w3.org/Graphics/SVG/1.1/DTD/svg11.dtd">
<svg width="100%" height="100%" viewBox="0 0 1024 1024" version="1.1" xmlns="http://www.w3.org/2000/svg" xmlns:xlink="http://www.w3.org/1999/xlink" xml:space="preserve" xmlns:serif="http://www.serif.com/" style="fill-rule:evenodd;clip-rule:evenodd;stroke-linecap:round;stroke-linejoin:round;stroke-miterlimit:1.5;">
    <g>
        <path d="M615,544C615,544 613.521,533.902 594,523C577.112,513.569 570.175,518.633 572,494C574.342,462.378 576,437 576,437" style="fill:none;stroke:white;stroke-width:14px;"/>
        <path d="M576,437C576,437 578.338,385.169 614,388C649.902,390.85 667.101,413.01 670,417C672.899,420.99 704.841,456.16 703,507C701.737,541.873 701,526 701,526" style="fill:none;stroke:white;stroke-width:14px;"/>
        <path d="M361,624L390,630L411,634L438,633L453,634C453,634 465.564,637.661 467,639C480.29,651.393 485.983,622.839 489,615C487.751,616.137 493,591 493,591L474,584C474,584 433.037,562.018 416,552C398.189,541.527 413.626,598.742 390,589C373.372,582.143 391,625 391,625C391,625 373.518,579.556 383.853,589.877" style="fill:none;stroke:white;stroke-width:14px;"/>
        <path d="M362,535C358.736,538.306 356.734,543.303 356,550L357.578,542.511C357.578,542.511 401.972,545.508 410,552" style="fill:none;stroke:white;stroke-width:14px;"/>
        <path d="M471,285L449,289L422,299L397,319L388,329L358,363C353.627,369.411 355.426,370.873 354,379L353,394L349,411L343,425L335,440L319,460L312,472C313.364,496.934 311.998,487.285 312,485L315,498L319,509L323,514L316,527L312,535L308,544L307,553L319,559L328,562L337,567L342,574L348,589L351,600L354,612L355,622L344,620L335,622L330,630L332,640L334,653L333,665L331,677L327,688L321,695L315,706L314,714L317,724L325,729C325,729 340.523,731.681 340,730C339.477,728.319 353.029,727.036 362,731L374,733L390,734L407,735L427,734L454,731L483,726L507,717L524,708L533,700L540.029,693.569L548,684L566,686L587,681L608,672L639,657L664,640L691,613L707,588L718,569L728,541L736,505L737,488L737,468L734,444L725,422L711,403L690,380L661,351L625,320L593,296L564,284L547,280L528,279L511,280L492,282L471,285Z" style="fill:none;stroke:white;stroke-width:14px;"/>
        <path d="M493,384L486.443,385.093L478,387L470,392L460,404L456,416L454,427C454,427 455.545,437.727 459,445C462.455,452.273 472,457 472,457L482,461L501,467C501,467 511.342,468.529 517,466C522.658,463.471 529,458 529,458L539,444L544,424L539,405L528,395L518,390L506,385L493,384Z" style="fill:none;stroke:white;stroke-width:14px;"/>
        <path d="M422,397C422,397 382.186,461.643 386,469C389.814,476.357 391.987,474.922 391.987,474.922C391.987,474.922 378.438,463.644 390.322,473.696C402.364,483.88 424.203,470.422 425,469L422,397Z" style="fill:none;stroke:white;stroke-width:14px;"/>
        <g>
            <path d="M355,427C359.812,398.45 364.407,388.181 377,380C389.593,371.819 391,376 391,376L400,378C416.311,385.08 422.614,390.797 422,397" style="fill:none;stroke:white;stroke-width:14px;"/>
            <path d="M355,427C355,427 354.103,437.039 359,447C363.897,456.961 395.165,444.066 398,438" style="fill:none;stroke:white;stroke-width:14px;"/>
        </g>
        <path d="M493,589C493,589 491.158,534.079 516,563C540.842,591.921 540.125,594.975 577,561C587.853,551.001 588,578 588,578C588,578 590.679,587.752 564,637C558.639,646.896 548,684 548,684" style="fill:none;stroke:white;stroke-width:14px;"/>
        <path d="M448,493C448,493 462.431,533.988 493,524" style="fill:none;stroke:white;stroke-width:14px;"/>
        <path d="M497,524C497,524 525.773,515.332 539,534" style="fill:none;stroke:white;stroke-width:14px;"/>
    </g>
</svg>
