<svg id="Layer_1" data-name="Layer 1" xmlns="http://www.w3.org/2000/svg" xmlns:xlink="http://www.w3.org/1999/xlink" viewBox="0 0 165.63 55.26"><defs><style>.cls-1{fill:url(#New_Gradient_Swatch);}.cls-2{fill:#f9f9f9;}.cls-3{fill:url(#New_Gradient_Swatch-2);}</style><linearGradient id="New_Gradient_Swatch" x1="5.46" y1="46.16" x2="44.17" y2="9.52" gradientUnits="userSpaceOnUse"><stop offset="0" stop-color="#33ff68"/><stop offset="1" stop-color="#52d691"/></linearGradient><linearGradient id="New_Gradient_Swatch-2" x1="153.04" y1="47.56" x2="160.77" y2="40.14" xlink:href="#New_Gradient_Swatch"/></defs><title>full-green</title><path class="cls-1" d="M43.93,45.83a5.73,5.73,0,0,1-4.62,1.65,5.92,5.92,0,0,1-3.57-1.75l-7.62-7.62a.8.8,0,0,1-.11-1,12.2,12.2,0,0,0,1.36-2.93A.4.4,0,0,1,30,34l8.81,8.81a1.51,1.51,0,0,0,2.09,0,1.48,1.48,0,0,0,0-2.1l-9.29-9.29a5.38,5.38,0,0,1,0-7.59l9.3-9.3a1.47,1.47,0,0,0,0-2.09,1.51,1.51,0,0,0-2.09,0l-9.29,9.3a8.25,8.25,0,0,0-2.43,5.35v.54a12.66,12.66,0,0,1-.83,4.51,12.51,12.51,0,0,1-1.94,3.35,12.25,12.25,0,0,1-.9,1l-9.29,9.29a5.75,5.75,0,0,1-5.41,1.52,5.65,5.65,0,0,1-1.53-.62A5.73,5.73,0,0,1,4.41,41.8a5.66,5.66,0,0,1,1.67-4l9.21-9.21a1.31,1.31,0,0,0,.42-.81,1.13,1.13,0,0,0-.33-.88l-9.3-9.3a5.73,5.73,0,0,1-1.52-5.4,5.16,5.16,0,0,1,.65-1.57,5.75,5.75,0,0,1,5.31-2.76,5.91,5.91,0,0,1,3.73,1.75l7.13,7.14a1.68,1.68,0,0,1,.29,2,12.18,12.18,0,0,0-1,2.19.53.53,0,0,1-.87.22l-8.66-8.68a1.52,1.52,0,0,0-2.1,0,1.46,1.46,0,0,0-.4,1.34,1.52,1.52,0,0,0,.44.8l9.26,9.25A5.33,5.33,0,0,1,19.93,28a5.5,5.5,0,0,1-1.65,3.54L9.13,40.7a1.53,1.53,0,0,0-.49,1.06,1.48,1.48,0,0,0,.43,1.09,1.52,1.52,0,0,0,2.1,0l9.29-9.3a8.26,8.26,0,0,0,2.42-5.35v-.53a12.45,12.45,0,0,1,2.77-7.87c.28-.35.59-.69.91-1l9.29-9.29a5.71,5.71,0,1,1,8.07,8.07l-9.3,9.3a1.14,1.14,0,0,0,0,1.63l9.28,9.27A5.72,5.72,0,0,1,43.93,45.83Z"/><rect class="cls-2" x="80.17" y="7.85" width="7.28" height="39.64"/><path class="cls-2" d="M71,7.48A9.21,9.21,0,0,1,74.58,8v6.13a8.39,8.39,0,0,0-2.3-.27,4.27,4.27,0,0,0-2.66.85,3.39,3.39,0,0,0-1.11,2.87v3h6.07v6.25H68.51V47.5H61.17V26.81h-4.5V20.56h4.5V17.49a10,10,0,0,1,2.65-7.28A9.51,9.51,0,0,1,71,7.48Z"/><path class="cls-2" d="M117.81,34.8c0,.2,0,.41,0,.62s0,.42,0,.62a12.32,12.32,0,0,1-7.26,10.64l0,0a12.34,12.34,0,0,1-10,0h0a.2.2,0,0,1-.08,0h0a12.31,12.31,0,0,1-7.18-9.85,10.9,10.9,0,0,1-.08-1.41V20.55h7.28V36.19a2.46,2.46,0,0,0,.09.67.42.42,0,0,1,0,.1,5.18,5.18,0,0,0,9.81.25c0-.06,0-.13.07-.2l.06-.22v0a2.42,2.42,0,0,0,0-.47V20.55h7.29Z"/><path class="cls-2" d="M149.57,47.5H141l-5.64-8.27c-.18.3-.71,1.08-1.56,2.35l-2.41,3.59c-.75,1.11-1.27,1.89-1.56,2.33h-8.22L131.23,34l-9.59-13.42h8.66q.49.77,2.71,4c1.48,2.17,2.36,3.49,2.66,4l5.3-8h8.27l-9.42,13.2Z"/><rect class="cls-3" x="153.27" y="40.16" width="7.33" height="7.33"/></svg>