<svg width="166" height="56" viewBox="0 0 166 56" fill="none" xmlns="http://www.w3.org/2000/svg">
<path d="M43.93 45.83C43.3301 46.4299 42.6045 46.8891 41.8055 47.1744C41.0065 47.4598 40.1542 47.5641 39.31 47.48C37.9538 47.3257 36.6927 46.7074 35.74 45.73L28.12 38.11C27.99 37.9811 27.9082 37.8114 27.8881 37.6295C27.8681 37.4475 27.9111 37.2641 28.01 37.11C28.5912 36.1979 29.0485 35.2126 29.37 34.18C29.391 34.1192 29.4263 34.0644 29.473 34.0202C29.5197 33.976 29.5763 33.9437 29.6382 33.9261C29.7 33.9084 29.7651 33.9059 29.8281 33.9188C29.8911 33.9316 29.9501 33.9595 30 34L38.81 42.81C39.0911 43.0795 39.4655 43.23 39.855 43.23C40.2445 43.23 40.6189 43.0795 40.9 42.81C41.0385 42.6724 41.1484 42.5088 41.2234 42.3286C41.2984 42.1484 41.337 41.9552 41.337 41.76C41.337 41.5648 41.2984 41.3715 41.2234 41.1913C41.1484 41.0111 41.0385 40.8476 40.9 40.71L31.61 31.42C30.6067 30.4118 30.0434 29.0473 30.0434 27.625C30.0434 26.2027 30.6067 24.8382 31.61 23.83L40.91 14.53C41.0482 14.3933 41.1579 14.2306 41.2327 14.0512C41.3076 13.8718 41.3461 13.6794 41.3461 13.485C41.3461 13.2906 41.3076 13.0982 41.2327 12.9188C41.1579 12.7394 41.0482 12.5767 40.91 12.44C40.6289 12.1705 40.2545 12.02 39.865 12.02C39.4755 12.02 39.1011 12.1705 38.82 12.44L29.53 21.74C28.0908 23.1647 27.2259 25.0689 27.1 27.09V27.63C27.1002 29.1713 26.8189 30.6997 26.27 32.14C25.8011 33.3506 25.1466 34.4808 24.33 35.49C24.0485 35.8396 23.7481 36.1734 23.43 36.49L14.14 45.78C13.4436 46.475 12.5805 46.9798 11.6333 47.2459C10.6861 47.512 9.68646 47.5307 8.73 47.3C8.19239 47.1694 7.67689 46.9605 7.2 46.68C6.35486 46.1748 5.65415 45.4604 5.16546 44.6056C4.67677 43.7509 4.41658 42.7846 4.41 41.8C4.41189 41.0562 4.56036 40.3201 4.84691 39.6338C5.13346 38.9475 5.55247 38.3243 6.08 37.8L15.29 28.59C15.5225 28.3791 15.6716 28.0916 15.71 27.78C15.7214 27.6182 15.6978 27.4559 15.6408 27.3041C15.5839 27.1522 15.4949 27.0144 15.38 26.9L6.08 17.6C5.38498 16.9057 4.88014 16.0444 4.61396 15.0987C4.34778 14.1531 4.3292 13.1549 4.56 12.2C4.68841 11.6443 4.90806 11.1138 5.21 10.63C5.75647 9.72686 6.54101 8.99159 7.47764 8.50475C8.41427 8.01792 9.46684 7.79831 10.52 7.87C11.933 7.98702 13.2568 8.60813 14.25 9.62L21.38 16.76C21.6388 17.0168 21.807 17.3507 21.8593 17.7115C21.9117 18.0723 21.8452 18.4403 21.67 18.76C21.2652 19.4552 20.9302 20.1888 20.67 20.95C20.6423 21.0353 20.5935 21.1122 20.5281 21.1734C20.4626 21.2347 20.3827 21.2784 20.2958 21.3003C20.2089 21.3223 20.1178 21.3219 20.0311 21.2991C19.9444 21.2763 19.8649 21.2319 19.8 21.17L11.14 12.49C10.8572 12.2198 10.4811 12.069 10.09 12.069C9.69887 12.069 9.3228 12.2198 9.04 12.49C8.86653 12.662 8.73901 12.8749 8.66913 13.109C8.59924 13.3431 8.58923 13.591 8.64 13.83C8.70122 14.1355 8.85481 14.4147 9.08 14.63L18.34 23.88C18.8841 24.4132 19.3075 25.0569 19.5818 25.7676C19.856 26.4783 19.9748 27.2395 19.93 28C19.8316 29.3421 19.2446 30.6016 18.28 31.54L9.13 40.7C8.83294 40.9746 8.65676 41.3558 8.64 41.76C8.6337 41.9614 8.66859 42.1619 8.74253 42.3494C8.81647 42.5368 8.9279 42.7071 9.07 42.85C9.3528 43.1202 9.72887 43.271 10.12 43.271C10.5111 43.271 10.8872 43.1202 11.17 42.85L20.46 33.55C21.8947 32.1233 22.7558 30.2195 22.88 28.2V27.67C22.8707 24.8062 23.849 22.0267 25.65 19.8C25.93 19.45 26.24 19.11 26.56 18.8L35.85 9.51C36.3726 8.94859 37.003 8.49823 37.7035 8.18581C38.4041 7.87339 39.1603 7.70531 39.9272 7.6916C40.6942 7.67789 41.456 7.81883 42.1672 8.10602C42.8784 8.3932 43.5245 8.82074 44.0669 9.36311C44.6093 9.90548 45.0368 10.5516 45.324 11.2628C45.6112 11.974 45.7521 12.7358 45.7384 13.5027C45.7247 14.2697 45.5566 15.0259 45.2442 15.7265C44.9318 16.427 44.4814 17.0574 43.92 17.58L34.62 26.88C34.5114 26.9862 34.4252 27.1129 34.3663 27.2529C34.3074 27.3929 34.2771 27.5432 34.2771 27.695C34.2771 27.8468 34.3074 27.9971 34.3663 28.1371C34.4252 28.2771 34.5114 28.4038 34.62 28.51L43.9 37.78C44.9647 38.8471 45.5652 40.2914 45.5708 41.7988C45.5764 43.3063 44.9868 44.755 43.93 45.83V45.83Z" fill="url(#paint0_linear)"/>
<path d="M87.45 7.85001H80.17V47.49H87.45V7.85001Z" fill="#F9F9F9"/>
<path d="M71 7.48C72.216 7.41497 73.4328 7.59171 74.58 8V14.13C73.8295 13.9341 73.0555 13.8433 72.28 13.86C71.3231 13.8372 70.3863 14.1366 69.62 14.71C69.2217 15.0669 68.9135 15.513 68.7206 16.0118C68.5277 16.5106 68.4555 17.048 68.51 17.58V20.58H74.58V26.83H68.51V47.5H61.17V26.81H56.67V20.56H61.17V17.49C61.1053 16.1613 61.3063 14.833 61.7614 13.5829C62.2164 12.3329 62.9163 11.1862 63.82 10.21C64.7611 9.28068 65.8858 8.55789 67.1221 8.08782C68.3584 7.61775 69.6792 7.41074 71 7.48V7.48Z" fill="#F9F9F9"/>
<path d="M117.81 34.8C117.81 35 117.81 35.21 117.81 35.42C117.81 35.63 117.81 35.84 117.81 36.04C117.699 38.3107 116.963 40.5065 115.681 42.3844C114.4 44.2623 112.624 45.749 110.55 46.68V46.68C108.975 47.3778 107.272 47.7384 105.55 47.7384C103.828 47.7384 102.125 47.3778 100.55 46.68C100.524 46.6854 100.496 46.6854 100.47 46.68V46.68C98.5211 45.8027 96.8342 44.4332 95.5753 42.7061C94.3163 40.979 93.5288 38.9539 93.29 36.83C93.2329 36.3622 93.2062 35.8912 93.21 35.42V20.55H100.49V36.19C100.489 36.4164 100.519 36.6419 100.58 36.86C100.584 36.8932 100.584 36.9268 100.58 36.96C100.901 37.9945 101.538 38.9023 102.402 39.5558C103.266 40.2093 104.313 40.5756 105.395 40.6032C106.478 40.6308 107.542 40.3183 108.438 39.7096C109.334 39.101 110.017 38.2268 110.39 37.21C110.39 37.15 110.39 37.08 110.46 37.01L110.52 36.79C110.535 36.6337 110.535 36.4763 110.52 36.32V20.55H117.81V34.8Z" fill="#F9F9F9"/>
<path d="M149.57 47.5H141L135.36 39.23C135.18 39.53 134.65 40.31 133.8 41.58L131.39 45.17C130.64 46.28 130.12 47.06 129.83 47.5H121.61L131.23 34L121.64 20.58H130.3C130.627 21.0933 131.53 22.4267 133.01 24.58C134.49 26.75 135.37 28.07 135.67 28.58L140.97 20.58H149.24L139.82 33.78L149.57 47.5Z" fill="#F9F9F9"/>
<path d="M160.6 40.16H153.27V47.49H160.6V40.16Z" fill="url(#paint1_linear)"/>
<defs>
<linearGradient id="paint0_linear" x1="5.46" y1="46.16" x2="44.17" y2="9.52" gradientUnits="userSpaceOnUse">
<stop stop-color="white"/>
<stop offset="1" stop-color="white"/>
</linearGradient>
<linearGradient id="paint1_linear" x1="1275.05" y1="388.775" x2="1331.71" y2="334.386" gradientUnits="userSpaceOnUse">
<stop stop-color="#33FF68"/>
<stop offset="1" stop-color="#52D691"/>
</linearGradient>
</defs>
</svg>
