<svg xmlns="http://www.w3.org/2000/svg" viewBox="0 0 447 447" id="1eb41971"><path fill="#99AAB5" d="m221 117.1-33.8-33.8 70-70c9.3-9.3 24.5-9.3 33.8 0 9.3 9.3 9.3 24.5 0 33.8l-70 70z"/><path fill="#23272A" d="m216.3 121.7-33.8-33.8c-2.6-2.6-2.6-6.8 0-9.3l70-70c11.9-11.9 31.2-11.9 43.1 0s11.9 31.2 0 43.1l-70 70c-2.6 2.6-6.7 2.6-9.3 0zm-19.8-38.4 24.5 24.5 65.3-65.3c6.7-6.7 6.7-17.7 0-24.5-6.7-6.7-17.7-6.7-24.5 0l-65.3 65.3z"/><path fill="#99AAB5" d="M312.7 208.8 278.9 175l70-70c9.3-9.3 24.5-9.3 33.8 0 9.3 9.3 9.3 24.5 0 33.8l-70 70z"/><path fill="#23272A" d="m308 213.4-33.8-33.8c-2.6-2.6-2.6-6.8 0-9.3l70-70c11.9-11.9 31.2-11.9 43.1 0s11.9 31.2 0 43.1l-70 70c-2.5 2.6-6.7 2.6-9.3 0zM288.2 175l24.5 24.5 65.3-65.3c6.7-6.7 6.7-17.7 0-24.5s-17.7-6.7-24.5 0L288.2 175z"/><path fill="#23272A" d="M303 257 138.9 92.9c-2.7-2.7-2.7-7 0-9.7L163 59.1c2.7-2.7 7-2.7 9.7 0l164.1 164.1c2.7 2.7 2.7 7 0 9.7L312.7 257c-2.7 2.7-7 2.7-9.7 0zM153.4 88.1l154.5 154.5 14.5-14.5L167.9 73.6l-14.5 14.5z"/><path fill="#7289DA" d="m161.2 327.6-92.9-92.9c-14.3-14.3-14.3-37.6 0-51.9l85.1-85.1 144.8 144.8-85.1 85.1c-14.3 14.4-37.6 14.4-51.9 0z"/><path fill="#23272A" d="m156.4 332.4-92.9-92.9c-17-17-17-44.6 0-61.6l85.1-85.1c2.7-2.7 7-2.7 9.7 0L303 237.7c2.7 2.7 2.7 7 0 9.7l-85 85c-17 17-44.7 17-61.6 0zm-3-225-80.2 80.2c-11.7 11.7-11.7 30.6 0 42.3l92.9 92.9c11.7 11.7 30.6 11.7 42.3 0l80.2-80.2-135.2-135.2z"/><path fill="#23272A" d="m95.4 329.5-29-29c-2.7-2.7-2.7-7 0-9.7l29-29c2.7-2.7 7-2.7 9.7 0l29 29c2.7 2.7 2.7 7 0 9.7l-29 29c-2.7 2.6-7 2.6-9.7 0zM81 295.7l19.3 19.3 19.3-19.3-19.3-19.3L81 295.7z"/><path fill="#23272A" d="M143.7 445.3 81 382.6c-21.3-21.3-21.3-55.9 0-77.2 2.7-2.7 7-2.7 9.7 0 2.7 2.7 2.7 7 0 9.7-16 16-16 42 0 57.9l62.8 62.8c2.7 2.7 2.7 7 0 9.7s-7.1 2.5-9.8-.2z"/><path fill="#23272A" transform="rotate(-45.001 237.859 158.089)" d="M220.8 42h34.1v232.1h-34.1z"/><path fill="#23272A" transform="rotate(-45.001 100.275 295.663)" d="M79.8 275.2h41v41h-41z"/></svg>