<svg width="96" height="23" viewBox="0 0 96 23" fill="none" xmlns="http://www.w3.org/2000/svg">
<g clip-path="url(#clip0_3846_47220)">
<path d="M37.9455 18.668V0.5H31.7214V4.11534H33.5045V19.2428C33.708 21.0824 34.9369 22.1385 36.8752 22.1385H39.7446V18.6714H37.9432L37.9466 18.668H37.9455Z" fill="#171D21"/>
<path d="M48.4794 6.63013C43.6786 6.63013 40.6965 9.57144 40.6965 14.5588C40.6965 19.5461 43.6797 22.4578 48.4794 22.4578C53.279 22.4578 56.2623 19.5496 56.2623 14.5588C56.2623 9.56802 53.279 6.63013 48.4794 6.63013ZM51.4397 15.5727C51.4397 17.6906 50.3625 18.9041 48.4828 18.9041C46.6032 18.9041 45.526 17.6906 45.526 15.5727V13.5164C45.526 11.3985 46.6032 10.185 48.4828 10.185C50.3625 10.185 51.4397 11.3985 51.4397 13.5164V15.5727Z" fill="#171D21"/>
<path d="M93.3053 16.9675C91.8177 16.9675 90.6106 18.1719 90.6106 19.6568C90.6106 21.1417 91.8212 22.3461 93.3053 22.3461C94.7895 22.3461 96 21.1417 96 19.6568C96 18.1719 94.7895 16.9675 93.3053 16.9675Z" fill="#171D21"/>
<path d="M71.4488 18.6714V12.5185C71.4488 8.72178 69.0392 6.63013 64.6649 6.63013C61.5241 6.63013 59.0708 7.74096 57.9327 9.67409L57.8649 9.787L60.4791 12.1045L60.5826 11.9619C61.5241 10.6868 62.6266 10.1189 64.1602 10.1189C65.9846 10.1189 66.7641 10.8876 66.7641 12.6884V12.969H64.4832C59.8468 12.969 57.4958 14.593 57.4958 17.7989C57.4958 20.5657 59.3306 22.2731 62.5323 22.4829C62.6645 22.492 62.8462 22.4989 63.06 22.4989C63.8038 22.4989 65.9478 22.3677 67.2159 20.8007C67.2389 20.8007 67.4446 20.8007 67.4446 20.8007C67.9896 22.029 69.453 22.1305 70.4808 22.1305H72.8915V18.6668H71.4419L71.4488 18.6703V18.6714ZM66.771 15.6468V17.3062C66.771 18.53 65.7616 19.3169 64.1958 19.3169C62.86 19.3169 62.0932 18.7877 62.0932 17.8639V17.2766C62.0932 15.9308 63.4612 15.6468 64.6097 15.6468H66.7733H66.7698H66.771Z" fill="#171D21"/>
<path d="M9.59241 6.98592V16.7485C9.59241 18.149 8.28875 18.7888 7.0759 18.7888C5.48368 18.7888 4.67895 17.8559 4.67895 16.0129V8.38872C4.61112 7.79909 4.09609 7.04751 3.1626 6.98364H0V16.6002C0 20.2122 1.91067 22.4589 5.25146 22.4589C7.42538 22.4589 8.81872 21.8955 9.58896 20.8178H9.82119V22.1076H14.2702V6.98592H9.59241Z" fill="#171D21"/>
<path d="M21.4691 22.1112V12.3486C21.4691 10.9481 22.7728 10.3083 23.9856 10.3083C25.5778 10.3083 26.3826 11.2412 26.3826 13.0842V20.7084C26.4504 21.298 26.9654 22.0496 27.8989 22.1135H31.0604V12.4969C31.0604 8.88494 29.1497 6.63818 25.8089 6.63818C23.635 6.63818 22.2416 7.20158 21.4714 8.27934H21.2392V6.98945H16.7902V22.11H21.468L21.4691 22.1112Z" fill="#171D21"/>
<path d="M79.4444 22.1112V12.3486C79.4444 10.9481 80.748 10.3083 81.9609 10.3083C83.5531 10.3083 84.3578 11.2412 84.3578 13.0842V20.7084C84.4257 21.298 84.9407 22.0496 85.8742 22.1135H89.0356V12.4969C89.0356 8.88494 87.125 6.63818 83.7842 6.63818C81.6102 6.63818 80.2169 7.20158 79.4467 8.27934H79.2144V6.98945H74.7654V22.11H79.4432L79.4444 22.1112Z" fill="#171D21"/>
</g>
<defs>
<clipPath id="clip0_3846_47220">
<rect width="96" height="22" fill="white" transform="translate(0 0.5)"/>
</clipPath>
</defs>
</svg>
