<svg xmlns="http://www.w3.org/2000/svg" xmlns:xlink="http://www.w3.org/1999/xlink" width="132.936" height="34" viewBox="0 0 132.936 34"><defs><linearGradient id="a" x1="-0.031" y1="1.01" x2="1.023" y2="-0.003" gradientUnits="objectBoundingBox"><stop offset="0" stop-color="#6dea9c"/><stop offset="1" stop-color="#52d691"/></linearGradient></defs><g transform="translate(0 0)"><g transform="translate(0 0)"><path d="M38.043,39.891a4.9,4.9,0,0,1-3.932,1.393,5.054,5.054,0,0,1-3.038-1.477l-6.485-6.433a.671.671,0,0,1-.094-.844,10.262,10.262,0,0,0,1.157-2.474.342.342,0,0,1,.536-.152l7.5,7.438a1.293,1.293,0,0,0,1.779,0,1.243,1.243,0,0,0,0-1.773l-7.906-7.843a4.517,4.517,0,0,1,0-6.408l7.915-7.852a1.234,1.234,0,0,0,0-1.765,1.293,1.293,0,0,0-1.779,0l-7.906,7.852a6.941,6.941,0,0,0-2.068,4.517v.456a10.412,10.412,0,0,1-2.357,6.636,10.371,10.371,0,0,1-.766.844l-7.906,7.843a4.92,4.92,0,0,1-4.6,1.283,4.795,4.795,0,0,1-3.677-4.643A4.76,4.76,0,0,1,5.83,33.111l7.838-7.776a1.1,1.1,0,0,0,.357-.684.95.95,0,0,0-.281-.743L5.83,16.057A4.812,4.812,0,0,1,4.536,11.5a4.337,4.337,0,0,1,.553-1.326,4.9,4.9,0,0,1,4.519-2.33A5.047,5.047,0,0,1,12.783,9.32l6.068,6.028a1.41,1.41,0,0,1,.247,1.689,10.244,10.244,0,0,0-.851,1.849.453.453,0,0,1-.74.186l-7.37-7.328a1.3,1.3,0,0,0-1.787,0,1.226,1.226,0,0,0-.34,1.131,1.28,1.28,0,0,0,.374.675l7.881,7.809a4.48,4.48,0,0,1,1.353,3.478,4.628,4.628,0,0,1-1.4,2.989L8.425,35.559a1.287,1.287,0,0,0-.417.895,1.244,1.244,0,0,0,.366.92,1.3,1.3,0,0,0,1.787,0l7.906-7.852a6.949,6.949,0,0,0,2.06-4.517v-.447a10.459,10.459,0,0,1,2.357-6.644,9.14,9.14,0,0,1,.774-.844l7.906-7.843a4.874,4.874,0,0,1,8.266,2.093,4.8,4.8,0,0,1-1.4,4.721l-7.915,7.852a.957.957,0,0,0,0,1.376l7.9,7.826A4.8,4.8,0,0,1,38.043,39.891Z" transform="translate(-4.4 -7.502)" fill="#6dea9c"/><rect width="6.196" height="33.467" transform="translate(64.485 0.323)" opacity="0.9"/><path d="M68.866,7.478a7.9,7.9,0,0,1,3.047.439v5.175a7.2,7.2,0,0,0-1.957-.228,3.654,3.654,0,0,0-2.264.718,2.85,2.85,0,0,0-.945,2.423v2.533h5.166v5.277H66.747V41.266H60.5V23.8H56.67V18.521H60.5V15.929a8.4,8.4,0,0,1,2.255-6.146A8.13,8.13,0,0,1,68.866,7.478Z" transform="translate(-12.185 -7.467)" opacity="0.9"/><path d="M114.146,32.581v1.047a10.4,10.4,0,0,1-6.179,8.983h0a10.579,10.579,0,0,1-8.511,0h0a.171.171,0,0,1-.068,0h0a10.4,10.4,0,0,1-6.111-8.316,9.127,9.127,0,0,1-.068-1.19V20.55h6.2v13.2a2.061,2.061,0,0,0,.077.566.354.354,0,0,1,0,.084,4.42,4.42,0,0,0,8.349.211.208.208,0,0,1,.06-.169l.051-.186h0a2.029,2.029,0,0,0,0-.4V20.55h6.2Z" transform="translate(-17.627 -9.504)" opacity="0.9"/><path d="M145.406,43.308h-7.294l-4.8-6.982c-.153.253-.6.912-1.328,1.984l-2.051,3.031c-.638.937-1.081,1.6-1.328,1.967h-7l8.187-11.4-8.162-11.33h7.37q.417.65,2.306,3.377c1.26,1.832,2.009,2.947,2.264,3.377l4.511-6.754h7.038l-8.017,11.144Z" transform="translate(-21.855 -9.509)" opacity="0.9"/><rect width="6.238" height="6.188" transform="translate(126.698 27.602)" fill="url(#a)"/></g></g></svg>
